<svg xmlns="http://www.w3.org/2000/svg" viewBox="0 0 180 400">
  <!-- Фон панели с тенью -->
  <rect x="3" y="3" width="174" height="394" rx="16" ry="16" fill="#888888" opacity="0.3"/>
  <rect x="0" y="0" width="174" height="394" rx="16" ry="16" fill="#F0F0F0" stroke="#E0E0E0" stroke-width="2"/>
  
  <!-- Белая пешка -->
  <g transform="translate(87, 60)">
    <circle cx="0" cy="-15" r="16" fill="#FFFFFF" stroke="#333333" stroke-width="2"/>
    <rect x="-13" y="-15" width="26" height="35" rx="2" ry="2" fill="#FFFFFF" stroke="#333333" stroke-width="2"/>
    <rect x="-20" y="20" width="40" height="6" rx="3" ry="3" fill="#FFFFFF" stroke="#333333" stroke-width="2"/>
  </g>
  
  <!-- Белый слон -->
  <g transform="translate(87, 130)">
    <path d="M0,-35 L18,-12 L8,20 L-8,20 L-18,-12 Z" fill="#FFFFFF" stroke="#333333" stroke-width="2"/>
    <circle cx="0" cy="-15" r="7" fill="#FFFFFF" stroke="#333333" stroke-width="2"/>
    <rect x="-20" y="20" width="40" height="6" rx="3" ry="3" fill="#FFFFFF" stroke="#333333" stroke-width="2"/>
  </g>
  
  <!-- Белая ладья -->
  <g transform="translate(87, 200)">
    <path d="M-18,-25 L-18,-35 L-10,-35 L-10,-30 L-3,-30 L-3,-35 L3,-35 L3,-30 L10,-30 L10,-35 L18,-35 L18,-25 L13,20 L-13,20 Z" fill="#FFFFFF" stroke="#333333" stroke-width="2"/>
    <rect x="-20" y="20" width="40" height="6" rx="3" ry="3" fill="#FFFFFF" stroke="#333333" stroke-width="2"/>
  </g>
  
  <!-- Белый конь -->
  <g transform="translate(87, 270)">
    <path d="M-12,-15 C-20,-28 -3,-35 8,-25 C17,-12 20,0 12,12 C5,20 -3,20 -12,12 C-20,3 -20,-3 -12,-15 Z" fill="#FFFFFF" stroke="#333333" stroke-width="2"/>
    <path d="M8,-25 L12,-33 L16,-25 Z" fill="#FFFFFF" stroke="#333333" stroke-width="2"/>
    <rect x="-20" y="20" width="40" height="6" rx="3" ry="3" fill="#FFFFFF" stroke="#333333" stroke-width="2"/>
  </g>
  
  <!-- Белый ферзь -->
  <g transform="translate(87, 340)">
    <path d="M0,-35 C17,-35 25,-17 17,0 C8,17 -8,17 -17,0 C-25,-17 -17,-35 0,-35 Z" fill="#FFFFFF" stroke="#333333" stroke-width="2"/>
    <circle cx="0" cy="-25" r="7" fill="#FFFFFF" stroke="#333333" stroke-width="2"/>
    <circle cx="-12" cy="-15" r="5" fill="#FFFFFF" stroke="#333333" stroke-width="2"/>
    <circle cx="12" cy="-15" r="5" fill="#FFFFFF" stroke="#333333" stroke-width="2"/>
    <circle cx="-8" cy="0" r="4" fill="#FFFFFF" stroke="#333333" stroke-width="2"/>
    <circle cx="8" cy="0" r="4" fill="#FFFFFF" stroke="#333333" stroke-width="2"/>
    <rect x="-20" y="20" width="40" height="6" rx="3" ry="3" fill="#FFFFFF" stroke="#333333" stroke-width="2"/>
  </g>
</svg>